<?xml version="1.0" standalone="no"?>
<!DOCTYPE svg PUBLIC "-//W3C//DTD SVG 20010904//EN"
 "http://www.w3.org/TR/2001/REC-SVG-20010904/DTD/svg10.dtd">
<svg version="1.0" xmlns="http://www.w3.org/2000/svg"
 width="285.000000pt" height="177.000000pt" viewBox="0 0 285.000000 177.000000"
 preserveAspectRatio="xMidYMid meet">

<g transform="translate(0.000000,177.000000) scale(0.100000,-0.100000)"
fill="#000000" stroke="none">
<path d="M280 1122 c-95 -52 -128 -206 -68 -314 30 -53 77 -78 148 -78 87 0
141 38 165 118 11 39 -18 24 -40 -20 -35 -72 -122 -98 -195 -59 -39 21 -80 89
-80 133 l0 28 163 0 163 0 -6 48 c-7 56 -34 107 -72 135 -40 30 -132 34 -178
9z m160 -31 c32 -23 57 -67 62 -106 l3 -30 -147 -3 c-167 -3 -165 -4 -129 74
19 41 58 77 96 87 32 8 88 -2 115 -22z"/>
<path d="M1054 1121 c-17 -10 -40 -32 -52 -47 l-21 -29 -1 43 c0 30 -4 42 -15
42 -13 0 -15 -37 -15 -270 0 -233 2 -270 15 -270 12 0 15 19 15 110 l0 110 34
-38 c34 -37 35 -37 114 -37 66 0 86 4 108 21 84 62 98 240 27 325 -50 59 -147
78 -209 40z m156 -30 c66 -46 90 -173 49 -258 -50 -103 -196 -110 -254 -12
-25 44 -27 169 -3 214 43 80 138 106 208 56z"/>
<path d="M1675 1126 c-73 -32 -111 -116 -102 -223 5 -72 29 -118 78 -151 29
-21 44 -23 106 -20 64 3 76 7 104 33 17 17 38 44 45 62 17 40 17 43 2 43 -7 0
-22 -17 -33 -37 -41 -75 -121 -102 -195 -65 -41 20 -80 83 -80 130 l0 32 160
0 160 0 0 38 c-1 52 -32 115 -71 142 -40 29 -129 37 -174 16z m156 -37 c31
-22 59 -76 59 -113 l0 -26 -145 0 c-139 0 -145 1 -145 20 0 32 25 83 52 108
49 45 125 50 179 11z"/>
<path d="M2055 1126 c-39 -17 -55 -37 -62 -79 -4 -28 0 -40 23 -66 24 -25 46
-35 119 -53 59 -14 97 -29 112 -44 43 -43 21 -105 -45 -124 -86 -23 -155 0
-181 62 -16 38 -41 52 -41 23 0 -29 31 -76 63 -95 39 -24 141 -27 192 -6 73
31 82 128 17 172 -17 12 -61 27 -97 34 -113 21 -162 75 -118 129 24 29 93 45
142 31 44 -11 67 -33 76 -72 9 -36 25 -36 25 0 0 61 -60 102 -147 102 -26 -1
-62 -7 -78 -14z"/>
<path d="M2425 1125 c-41 -21 -55 -43 -55 -83 0 -66 31 -91 138 -112 35 -7 78
-23 95 -34 27 -18 32 -28 32 -60 0 -50 -34 -77 -102 -83 -62 -5 -111 19 -138
69 -22 42 -51 53 -40 16 22 -73 75 -108 163 -108 98 0 152 38 152 108 0 66
-32 89 -175 122 -73 17 -95 34 -95 74 0 80 127 111 201 49 16 -14 29 -33 29
-43 0 -10 7 -20 15 -24 19 -7 19 14 1 58 -8 20 -27 39 -49 49 -44 21 -132 22
-172 2z"/>
<path d="M576 1118 c4 -7 35 -49 70 -93 l62 -81 -60 -79 c-106 -142 -102 -135
-81 -135 11 0 44 35 88 96 l70 96 22 -29 c13 -15 44 -58 71 -95 27 -39 54 -68
65 -68 9 0 17 2 17 5 0 3 -34 51 -75 105 -41 54 -75 102 -75 105 0 4 29 44 65
90 36 45 65 86 65 89 0 3 -7 6 -15 6 -8 0 -42 -36 -75 -80 -33 -44 -62 -80
-64 -80 -1 0 -29 36 -61 80 -37 50 -66 80 -78 80 -12 0 -16 -4 -11 -12z"/>
<path d="M1380 930 c0 -171 2 -200 15 -200 13 0 15 21 15 131 0 100 4 139 16
165 19 40 56 69 102 79 38 8 43 25 7 25 -35 0 -79 -24 -104 -56 l-21 -27 0 42
c0 30 -4 41 -15 41 -13 0 -15 -29 -15 -200z"/>
</g>
</svg>
